<svg xmlns="http://www.w3.org/2000/svg" xmlns:xlink="http://www.w3.org/1999/xlink" viewBox="0 0 512 512" width="512" height="512" style="width: 100%; height: 100%; transform: translate3d(0,0,0); content-visibility: visible;" preserveAspectRatio="xMidYMid meet"><defs><clipPath id="__lottie_element_2"><rect width="512" height="512" x="0" y="0"></rect></clipPath><clipPath id="__lottie_element_4"><path d="M0,0 L512,0 L512,512 L0,512z"></path></clipPath><clipPath id="__lottie_element_93"><path d="M0,0 L512,0 L512,512 L0,512z"></path></clipPath></defs><g clip-path="url(#__lottie_element_2)"><g clip-path="url(#__lottie_element_93)" style="display: block;" transform="matrix(1.090000033378601,0,0,1.090000033378601,-23.040008544921875,-23.040008544921875)" opacity="1"><g style="display: none;"><g><path></path><path stroke-linecap="round" stroke-linejoin="round" fill-opacity="0"></path></g></g><g style="display: none;"><g><path></path><path stroke-linecap="round" stroke-linejoin="round" fill-opacity="0"></path></g></g><g style="display: none;"><g><path></path></g><g><path></path></g><g><path></path></g><g><path></path></g></g><g style="display: none;"><g><path></path></g></g><g style="display: block;" transform="matrix(1,0,0,1,290.6340026855469,363.5589904785156)" opacity="1"><g opacity="1" transform="matrix(1,0,0,1,0,0)"><path fill="rgb(255,213,39)" fill-opacity="1" d=" M-87.822998046875,-74.49800109863281 C-137.18899536132812,-59.19599914550781 -144.49000549316406,-17.992000579833984 -150.5019989013672,12.829999923706055 C-151.40499877929688,17.45800018310547 -152.51199340820312,22.93600082397461 -153.16000366210938,28.660999298095703 C-154.69000244140625,42.178001403808594 -153.66099548339844,57.07400131225586 -141.3459930419922,65.43299865722656 C-105.86399841308594,89.51699829101562 11.626999855041504,98.89800262451172 87.10700225830078,81.46299743652344 C124.20099639892578,72.8949966430664 151.1479949951172,57.8489990234375 153.22900390625,34.888999938964844 C154.38499450683594,22.128000259399414 153.38499450683594,9.736000061035156 150.7550048828125,-2.010999917984009 C141.43299865722656,-43.652000427246094 111.64099884033203,-77.197998046875 84.90399932861328,-90.43499755859375"></path><path stroke-linecap="round" stroke-linejoin="round" fill-opacity="0" stroke="rgb(250,144,22)" stroke-opacity="1" stroke-width="10" d=" M-87.822998046875,-74.49800109863281 C-137.18899536132812,-59.19599914550781 -144.49000549316406,-17.992000579833984 -150.5019989013672,12.829999923706055 C-151.40499877929688,17.45800018310547 -152.51199340820312,22.93600082397461 -153.16000366210938,28.660999298095703 C-154.69000244140625,42.178001403808594 -153.66099548339844,57.07400131225586 -141.3459930419922,65.43299865722656 C-105.86399841308594,89.51699829101562 11.626999855041504,98.89800262451172 87.10700225830078,81.46299743652344 C124.20099639892578,72.8949966430664 151.1479949951172,57.8489990234375 153.22900390625,34.888999938964844 C154.38499450683594,22.128000259399414 153.38499450683594,9.736000061035156 150.7550048828125,-2.010999917984009 C141.43299865722656,-43.652000427246094 111.64099884033203,-77.197998046875 84.90399932861328,-90.43499755859375"></path></g></g><g style="display: block;" transform="matrix(1,0,0,1,161.11399841308594,362.63897705078125)" opacity="1"><g opacity="1" transform="matrix(1,0,0,1,0,0)"><path stroke-linecap="round" stroke-linejoin="round" fill-opacity="0" stroke-dasharray=" 25 15" stroke-dashoffset="0" stroke="rgb(255,255,255)" stroke-opacity="1" stroke-width="10" d=" M-4.988999843597412,22.030000686645508 C-3.8410000801086426,-2.0250000953674316 0.3880000114440918,-14.602999687194824 5.072000026702881,-24.452999114990234"></path></g></g><g style="display: block;" transform="matrix(1,0,0,1,397.7099914550781,422.2509765625)" opacity="1"><g opacity="1" transform="matrix(1,0,0,1,0,0)"><path stroke-linecap="round" stroke-linejoin="round" fill-opacity="0" stroke="rgb(252,238,33)" stroke-opacity="1" stroke-width="8" d=" M-17.617000579833984,7.952000141143799 C-2.946000099182129,5.699999809265137 14.152999877929688,-3.6730000972747803 19.68000030517578,-8.199000358581543"></path></g></g><g style="display: block;" transform="matrix(1.0490964651107788,0,0,1.0509034395217896,287.58099365234375,191.8184356689453)" opacity="1"><g opacity="1" transform="matrix(1,0,0,1,0,0)"><path fill="rgb(255,213,39)" fill-opacity="1" d=" M108.27400207519531,112.7979965209961 C133.39999389648438,91.62699890136719 147.80799865722656,62.257999420166016 147.44200134277344,27.990999221801758 C146.66400146484375,-44.80400085449219 79.88600158691406,-115.75800323486328 -1.5449999570846558,-114.88700103759766 C-82.9749984741211,-114.01599884033203 -148.22000122070312,-41.6510009765625 -147.44200134277344,31.143999099731445 C-147.0749969482422,65.50399780273438 -131.968994140625,94.4260025024414 -106.71399688720703,114.8949966430664"></path><path stroke-linecap="round" stroke-linejoin="round" fill-opacity="0" stroke="rgb(250,144,22)" stroke-opacity="1" stroke-width="9.524" d=" M108.27400207519531,112.7979965209961 C133.39999389648438,91.62699890136719 147.80799865722656,62.257999420166016 147.44200134277344,27.990999221801758 C146.66400146484375,-44.80400085449219 79.88600158691406,-115.75800323486328 -1.5449999570846558,-114.88700103759766 C-82.9749984741211,-114.01599884033203 -148.22000122070312,-41.6510009765625 -147.44200134277344,31.143999099731445 C-147.0749969482422,65.50399780273438 -131.968994140625,94.4260025024414 -106.71399688720703,114.8949966430664"></path></g></g><g style="display: block;" transform="matrix(1.0490964651107788,0,0,1.0509034395217896,214.69503784179688,138.95169067382812)" opacity="1"><g opacity="1" transform="matrix(1,0,0,1,0,0)"><path stroke-linecap="round" stroke-linejoin="round" fill-opacity="0" stroke="rgb(255,255,255)" stroke-opacity="1" stroke-width="10" d=" M-40.12799835205078,31.753000259399414 C-29.922000885009766,10.109999656677246 -12.809000015258789,-9.104000091552734 8.640000343322754,-22.354999542236328 C18.959999084472656,-28.729000091552734 30.283000946044922,-33.7239990234375 42.323001861572266,-36.944000244140625"></path></g></g><g style="display: block;" transform="matrix(0.9858282208442688,0.3594301640987396,-0.3588121235370636,0.9875262379646301,376.832763671875,253.44668579101562)" opacity="1"><g opacity="1" transform="matrix(1,0,0,1,0,0)"><path fill="rgb(0,0,0)" fill-opacity="1" d=" M-7.605999946594238,-28.551000595092773 C6.218999862670898,-32.23400115966797 20.832000732421875,-22.437000274658203 25.033000946044922,-6.669000148773193 C29.233999252319336,9.098999977111816 21.430999755859375,24.868000030517578 7.605999946594238,28.551000595092773 C-6.218999862670898,32.23400115966797 -20.832000732421875,22.437000274658203 -25.033000946044922,6.669000148773193 C-29.233999252319336,-9.098999977111816 -21.430999755859375,-24.868000030517578 -7.605999946594238,-28.551000595092773z"></path><path stroke-linecap="round" stroke-linejoin="round" fill-opacity="0" stroke="rgb(0,0,0)" stroke-opacity="1" stroke-width="0" d=" M-7.605999946594238,-28.551000595092773 C6.218999862670898,-32.23400115966797 20.832000732421875,-22.437000274658203 25.033000946044922,-6.669000148773193 C29.233999252319336,9.098999977111816 21.430999755859375,24.868000030517578 7.605999946594238,28.551000595092773 C-6.218999862670898,32.23400115966797 -20.832000732421875,22.437000274658203 -25.033000946044922,6.669000148773193 C-29.233999252319336,-9.098999977111816 -21.430999755859375,-24.868000030517578 -7.605999946594238,-28.551000595092773z"></path></g></g><g style="display: block;" transform="matrix(0.9858282208442688,0.3594301640987396,-0.3588121235370636,0.9875262379646301,370.6413879394531,237.5387725830078)" opacity="1"><g opacity="1" transform="matrix(1,0,0,1,0,0)"><path fill="rgb(255,255,255)" fill-opacity="1" d=" M-7.163000106811523,-1.1030000448226929 C-7.991000175476074,3.819999933242798 -5.454999923706055,8.305000305175781 -1.4989999532699585,8.913999557495117 C2.4570000171661377,9.52299976348877 6.335000038146973,6.026000022888184 7.163000106811523,1.1030000448226929 C7.991000175476074,-3.819999933242798 5.454999923706055,-8.305000305175781 1.4989999532699585,-8.913999557495117 C-2.4570000171661377,-9.52299976348877 -6.335000038146973,-6.026000022888184 -7.163000106811523,-1.1030000448226929z"></path></g></g><g style="display: block;" transform="matrix(0.9858282208442688,0.3594301640987396,-0.3588121235370636,0.9875262379646301,394.7183837890625,209.7986297607422)" opacity="1"><g opacity="1" transform="matrix(1,0,0,1,0,0)"><path stroke-linecap="round" stroke-linejoin="round" fill-opacity="0" stroke="rgb(0,0,0)" stroke-opacity="1" stroke-width="10" d=" M-16.128999710083008,0.843999981880188 C-3.8940000534057617,-2.9660000801086426 7.691999912261963,-2.687000036239624 16.128999710083008,1.805999994277954"></path></g></g><g style="display: block;" transform="matrix(0.9858282208442688,0.3594301640987396,-0.3588121235370636,0.9875262379646301,295.1953430175781,278.20587158203125)" opacity="1"><g opacity="1" transform="matrix(1,0,0,1,0,0)"><path fill="rgb(255,93,31)" fill-opacity="1" d=" M-40.54100036621094,2.2249999046325684 C-15.486000061035156,-0.36399999260902405 -9.829999923706055,-34.319000244140625 -1.3519999980926514,-34.319000244140625 C7.947999954223633,-34.319000244140625 18.422000885009766,1.4279999732971191 36.917999267578125,2.5899999141693115 C44.54999923706055,3.069999933242798 49.124000549316406,10.416000366210938 48.784000396728516,17.930999755859375 C48.52199935913086,23.708999633789062 45.35499954223633,29.58799934387207 38.43899917602539,32.525001525878906 C30.62299919128418,35.84400177001953 14.15999984741211,35.880001068115234 -8.104999542236328,34.85599899291992 C-26.871999740600586,33.99300003051758 -52.34000015258789,38.380001068115234 -56.07099914550781,22.85300064086914 C-58.13100051879883,14.281999588012695 -54.08100128173828,3.624000072479248 -40.54100036621094,2.2249999046325684z"></path><path stroke-linecap="butt" stroke-linejoin="round" fill-opacity="0" stroke="rgb(207,53,2)" stroke-opacity="1" stroke-width="10" d=" M-40.54100036621094,2.2249999046325684 C-15.486000061035156,-0.36399999260902405 -9.829999923706055,-34.319000244140625 -1.3519999980926514,-34.319000244140625 C7.947999954223633,-34.319000244140625 18.422000885009766,1.4279999732971191 36.917999267578125,2.5899999141693115 C44.54999923706055,3.069999933242798 49.124000549316406,10.416000366210938 48.784000396728516,17.930999755859375 C48.52199935913086,23.708999633789062 45.35499954223633,29.58799934387207 38.43899917602539,32.525001525878906 C30.62299919128418,35.84400177001953 14.15999984741211,35.880001068115234 -8.104999542236328,34.85599899291992 C-26.871999740600586,33.99300003051758 -52.34000015258789,38.380001068115234 -56.07099914550781,22.85300064086914 C-58.13100051879883,14.281999588012695 -54.08100128173828,3.624000072479248 -40.54100036621094,2.2249999046325684z"></path></g></g><g style="display: block;" transform="matrix(0.9858282208442688,0.3594301640987396,-0.3588121235370636,0.9875262379646301,286.215087890625,268.45867919921875)" opacity="0.33"><g opacity="1" transform="matrix(1,0,0,1,0,0)"><path stroke-linecap="round" stroke-linejoin="round" fill-opacity="0" stroke="rgb(255,255,255)" stroke-opacity="1" stroke-width="10" d=" M-7.525000095367432,10.501999855041504 C-0.5640000104904175,5.953000068664551 3.065000057220459,-2.6440000534057617 7.525000095367432,-10.501999855041504"></path></g></g><g style="display: block;" transform="matrix(-0.9858282208442688,-0.3594301640987396,-0.3588121235370636,0.9875262379646301,251.13967895507812,207.6193389892578)" opacity="1"><g opacity="1" transform="matrix(1,0,0,1,0,0)"><path fill="rgb(0,0,0)" fill-opacity="1" d=" M-7.605999946594238,-28.551000595092773 C6.218999862670898,-32.23400115966797 20.832000732421875,-22.437000274658203 25.033000946044922,-6.669000148773193 C29.233999252319336,9.098999977111816 21.430999755859375,24.868000030517578 7.605999946594238,28.551000595092773 C-6.218999862670898,32.23400115966797 -20.832000732421875,22.437000274658203 -25.033000946044922,6.669000148773193 C-29.233999252319336,-9.098999977111816 -21.430999755859375,-24.868000030517578 -7.605999946594238,-28.551000595092773z"></path><path stroke-linecap="round" stroke-linejoin="round" fill-opacity="0" stroke="rgb(0,0,0)" stroke-opacity="1" stroke-width="0" d=" M-7.605999946594238,-28.551000595092773 C6.218999862670898,-32.23400115966797 20.832000732421875,-22.437000274658203 25.033000946044922,-6.669000148773193 C29.233999252319336,9.098999977111816 21.430999755859375,24.868000030517578 7.605999946594238,28.551000595092773 C-6.218999862670898,32.23400115966797 -20.832000732421875,22.437000274658203 -25.033000946044922,6.669000148773193 C-29.233999252319336,-9.098999977111816 -21.430999755859375,-24.868000030517578 -7.605999946594238,-28.551000595092773z"></path></g></g><g style="display: block;" transform="matrix(-0.631449818611145,-0.8392226099967957,-0.8377795815467834,0.6325373649597168,246.37380981445312,192.23117065429688)" opacity="1"><g opacity="1" transform="matrix(1,0,0,1,0,0)"><path fill="rgb(255,255,255)" fill-opacity="1" d=" M-7.163000106811523,-1.1030000448226929 C-7.991000175476074,3.819999933242798 -5.454999923706055,8.305000305175781 -1.4989999532699585,8.913999557495117 C2.4570000171661377,9.52299976348877 6.335000038146973,6.026000022888184 7.163000106811523,1.1030000448226929 C7.991000175476074,-3.819999933242798 5.454999923706055,-8.305000305175781 1.4989999532699585,-8.913999557495117 C-2.4570000171661377,-9.52299976348877 -6.335000038146973,-6.026000022888184 -7.163000106811523,-1.1030000448226929z"></path></g></g><g style="display: block;" transform="matrix(-0.9858282208442688,-0.3594301640987396,-0.3588121235370636,0.9875262379646301,276.2110595703125,133.040771484375)" opacity="1"><g opacity="1" transform="matrix(1,0,0,1,0,0)"><path stroke-linecap="round" stroke-linejoin="round" fill-opacity="0" stroke="rgb(0,0,0)" stroke-opacity="1" stroke-width="10" d=" M-16.128999710083008,0.843999981880188 C-3.8940000534057617,-2.9660000801086426 7.691999912261963,-2.687000036239624 16.128999710083008,1.805999994277954"></path></g></g><g style="display: block;" transform="matrix(0.9858282208442688,0.3594301640987396,-0.3588121235370636,0.9875262379646301,284.63116455078125,296.1608581542969)" opacity="1"><g opacity="1" transform="matrix(1,0,0,1,0,0)"><path stroke-linecap="round" stroke-linejoin="round" fill-opacity="0" stroke="rgb(125,9,9)" stroke-opacity="1" stroke-width="10" d=" M35.64099884033203,0.3140000104904175 C15.413999557495117,0.6309999823570251 -16.68400001525879,-1.3279999494552612 -35.64099884033203,0.3140000104904175"></path></g></g><g style="display: block;" transform="matrix(0.9995853900909424,0.028793951496481895,-0.028793951496481895,0.9995853900909424,309.85198974609375,341.94097900390625)" opacity="1"><g opacity="1" transform="matrix(1,0,0,1,0,0)"><path fill="rgb(255,255,255)" fill-opacity="1" d=" M-109.14600372314453,65.66600036621094 C-109.14600372314453,65.66600036621094 -51.5369987487793,80.51899719238281 -51.5369987487793,80.51899719238281 C-51.5369987487793,80.51899719238281 15.857000350952148,91.40299987792969 15.857000350952148,91.40299987792969 C15.857000350952148,91.40299987792969 73.81199645996094,95.40799713134766 73.81199645996094,95.40799713134766 C73.81199645996094,95.40799713134766 109.93599700927734,-82.6449966430664 109.93599700927734,-82.6449966430664 C109.93599700927734,-82.6449966430664 42.67599868774414,-85.8290023803711 42.67599868774414,-85.8290023803711 C42.67599868774414,-85.8290023803711 -12.755000114440918,-103.65299987792969 -12.755000114440918,-103.65299987792969 C-12.755000114440918,-103.65299987792969 -66.94000244140625,-112.27899932861328 -66.94000244140625,-112.27899932861328 C-66.94000244140625,-112.27899932861328 -109.14600372314453,65.66600036621094 -109.14600372314453,65.66600036621094z"></path><path stroke-linecap="round" stroke-linejoin="round" fill-opacity="0" stroke="rgb(186,186,186)" stroke-opacity="1" stroke-width="8" d=" M-109.14600372314453,65.66600036621094 C-109.14600372314453,65.66600036621094 -51.5369987487793,80.51899719238281 -51.5369987487793,80.51899719238281 C-51.5369987487793,80.51899719238281 15.857000350952148,91.40299987792969 15.857000350952148,91.40299987792969 C15.857000350952148,91.40299987792969 73.81199645996094,95.40799713134766 73.81199645996094,95.40799713134766 C73.81199645996094,95.40799713134766 109.93599700927734,-82.6449966430664 109.93599700927734,-82.6449966430664 C109.93599700927734,-82.6449966430664 42.67599868774414,-85.8290023803711 42.67599868774414,-85.8290023803711 C42.67599868774414,-85.8290023803711 -12.755000114440918,-103.65299987792969 -12.755000114440918,-103.65299987792969 C-12.755000114440918,-103.65299987792969 -66.94000244140625,-112.27899932861328 -66.94000244140625,-112.27899932861328 C-66.94000244140625,-112.27899932861328 -109.14600372314453,65.66600036621094 -109.14600372314453,65.66600036621094z"></path></g></g><g style="display: block;" transform="matrix(0.9933779239654541,0.028615139424800873,-0.02897506393492222,1.0058727264404297,-56.543731689453125,32.4393310546875)" opacity="1"><g opacity="1" transform="matrix(1,0,0,1,422.4519958496094,329.37200927734375)"><path fill="rgb(169,229,137)" fill-opacity="1" d=" M23.399999618530273,3.0859999656677246 C14.25,3.0859999656677246 -11.748000144958496,0.4099999964237213 -23.264999389648438,1.8990000486373901 C-23.264999389648438,1.8990000486373901 -26.452999114990234,38.1349983215332 -26.452999114990234,38.1349983215332 C-26.452999114990234,38.1349983215332 17.913999557495117,41.66899871826172 17.913999557495117,41.66899871826172 C17.913999557495117,41.66899871826172 23.481000900268555,3.0859999656677246 23.481000900268555,3.0859999656677246 C23.476999282836914,3.0859999656677246 23.472000122070312,3.0859999656677246 23.468000411987305,3.0859999656677246 C23.44499969482422,3.0859999656677246 23.42300033569336,3.0859999656677246 23.399999618530273,3.0859999656677246 M31.4950008392334,-32.74700164794922 C31.4950008392334,-32.74700164794922 -18.72800064086914,-26.45800018310547 -18.72800064086914,-26.45800018310547 C-18.72800064086914,-26.45800018310547 -20.798999786376953,-13.517999649047852 -20.798999786376953,-13.517999649047852 C-10.402999877929688,-14.734000205993652 -0.5870000123977661,-15.411999702453613 8.218000411987305,-15.413999557495117 C10.298999786376953,-15.413999557495117 25.323999404907227,-14.62600040435791 27.290000915527344,-14.54699993133545 C27.290000915527344,-14.54699993133545 31.2450008392334,-32.49700164794922 31.2450008392334,-32.49700164794922 M41.24599838256836,-70.69300079345703 C41.24599838256836,-70.69300079345703 -11.824000358581543,-69.61100006103516 -11.824000358581543,-69.61100006103516 C-11.824000358581543,-69.61100006103516 -16.23200035095215,-42.06100082397461 -16.23200035095215,-42.06100082397461 C-16.23200035095215,-42.06100082397461 35.61899948120117,-46.270999908447266 35.61899948120117,-46.270999908447266"></path></g><g opacity="1" transform="matrix(1,0,0,1,378.3630065917969,313.6210021972656)"><path fill="rgb(219,219,219)" fill-opacity="1" d=" M5.258999824523926,19.983999252319336 C3.3239998817443848,20.312000274658203 1.3799999952316284,20.6560001373291 -0.5720000267028809,21.013999938964844 C-20.048999786376953,24.579999923706055 -40.2859992980957,29.5939998626709 -58.10900115966797,35.292999267578125 C-65.75299835205078,37.736000061035156 -80.70600128173828,36.30699920654297 -87.1969985961914,38.926998138427734 C-87.1969985961914,38.926998138427734 -89.30699920654297,39.849998474121094 -89.30699920654297,39.849998474121094 C-89.30699920654297,39.849998474121094 -50.316001892089844,44.96200180053711 -50.316001892089844,44.96200180053711 C-50.316001892089844,44.96200180053711 3.1630001068115234,51.58399963378906 3.1630001068115234,51.58399963378906 C3.1630001068115234,51.58399963378906 5.258999824523926,19.983999252319336 5.258999824523926,19.983999252319336 M9.763999938964844,-8.170999526977539 C9.763999938964844,-8.170999526977539 -77.99500274658203,6.238999843597412 -77.99500274658203,6.238999843597412 C-77.99500274658203,6.238999843597412 -82.00700378417969,22.78499984741211 -82.00700378417969,22.78499984741211 C-77.36599731445312,21.16699981689453 -62.28799819946289,20.847999572753906 -57.32500076293945,19.336000442504883 C-36.720001220703125,13.0600004196167 -13.777999877929688,7.776000022888184 7.75600004196167,4.376999855041504 C7.75600004196167,4.376999855041504 9.763999938964844,-8.170999526977539 9.763999938964844,-8.170999526977539 M-34.54999923706055,-16.163999557495117 C-34.54999923706055,-16.163999557495117 -73.66600036621094,-14.107000350952148 -73.66600036621094,-14.107000350952148 C-73.66600036621094,-14.107000350952148 -75.12000274658203,-10.53499984741211 -75.12000274658203,-10.53499984741211 C-75.12000274658203,-10.53499984741211 -34.54999923706055,-16.163999557495117 -34.54999923706055,-16.163999557495117 M37.69499969482422,-87.7959976196289 C37.69499969482422,-87.7959976196289 33.231998443603516,-59.90700149536133 33.231998443603516,-59.90700149536133 C33.231998443603516,-59.90700149536133 87.8219985961914,-61.553001403808594 87.8219985961914,-61.553001403808594 C87.8219985961914,-61.553001403808594 93.0999984741211,-84.84500122070312 93.0999984741211,-84.84500122070312 C93.0999984741211,-84.84500122070312 59.66400146484375,-84.40899658203125 59.66400146484375,-84.40899658203125 C59.66400146484375,-84.40899658203125 37.69499969482422,-87.7959976196289 37.69499969482422,-87.7959976196289"></path></g><g opacity="1" transform="matrix(1,0,0,1,359.3179931640625,267.6709899902344)"><path fill="rgb(239,236,175)" fill-opacity="1" d=" M-46.26300048828125,-13.277000427246094 C-46.26300048828125,-13.277000427246094 -54.62200164794922,31.8439998626709 -54.62200164794922,31.8439998626709 C-54.62200164794922,31.8439998626709 -15.505999565124512,29.78700065612793 -15.505999565124512,29.78700065612793 C-15.505999565124512,29.78700065612793 31.30500030517578,22.176000595092773 31.30500030517578,22.176000595092773 C31.30500030517578,22.176000595092773 36.108001708984375,-7.843999862670898 36.108001708984375,-7.843999862670898 C36.108001708984375,-7.843999862670898 -45.01300048828125,-14.027000427246094 -45.01300048828125,-14.027000427246094 M-36.63100051879883,-56.402000427246094 C-36.63100051879883,-56.402000427246094 -43.16299819946289,-22.049999237060547 -43.16299819946289,-22.049999237060547 C-43.16299819946289,-22.049999237060547 37.05699920654297,-13.774999618530273 37.05699920654297,-13.774999618530273 C37.05699920654297,-13.774999618530273 41.91400146484375,-44.13199996948242 41.91400146484375,-44.13199996948242 C41.91400146484375,-44.13199996948242 -0.7699999809265137,-58.00199890136719 -0.7699999809265137,-58.00199890136719 C-0.7699999809265137,-58.00199890136719 -34.38100051879883,-56.652000427246094 -34.38100051879883,-56.652000427246094"></path></g><g opacity="1" transform="matrix(1,0,0,1,365.0570068359375,343.7829895019531)"><path fill="rgb(156,191,249)" fill-opacity="1" d=" M21.062000274658203,-25.78499984741211 C-0.47200000286102295,-22.38599967956543 -23.415000915527344,-17.101999282836914 -44.02000045776367,-10.826000213623047 C-48.983001708984375,-9.314000129699707 -64.05999755859375,-8.994000434875488 -68.70099639892578,-7.375999927520752 C-68.70099639892578,-7.375999927520752 -73.89099884033203,8.765999794006348 -73.89099884033203,8.765999794006348 C-67.4000015258789,6.145999908447266 -52.448001861572266,7.574999809265137 -44.80400085449219,5.131999969482422 C-26.981000900268555,-0.5669999718666077 -6.74399995803833,-5.581999778747559 12.732999801635742,-9.14799976348877 C14.6850004196167,-9.505999565124512 16.6299991607666,-9.848999977111816 18.565000534057617,-10.177000045776367 C18.565000534057617,-10.177000045776367 21.062000274658203,-25.78499984741211 21.062000274658203,-25.78499984741211 M65.61199951171875,-29.823999404907227 C56.80699920654297,-29.82200050354004 46.992000579833984,-29.145000457763672 36.59600067138672,-27.929000854492188 C36.59600067138672,-27.929000854492188 34.12900161743164,-12.51099967956543 34.12900161743164,-12.51099967956543 C45.645999908447266,-14 71.64399719238281,-11.324000358581543 80.79399871826172,-11.324000358581543 C80.81700134277344,-11.324000358581543 80.83899688720703,-11.324000358581543 80.86199951171875,-11.324000358581543 C80.86599731445312,-11.324000358581543 80.87200164794922,-11.324000358581543 80.8759994506836,-11.324000358581543 C80.8759994506836,-11.324000358581543 80.8759994506836,-11.324000358581543 80.8759994506836,-11.324000358581543 C80.8759994506836,-11.324000358581543 84.68399810791016,-28.957000732421875 84.68399810791016,-28.957000732421875 C84.68399810791016,-28.957000732421875 84.68399810791016,-28.957000732421875 84.68399810791016,-28.957000732421875 C82.71800231933594,-29.035999298095703 67.69300079345703,-29.823999404907227 65.61199951171875,-29.823999404907227"></path></g></g><g style="display: none;"><g><path></path><path stroke-linecap="round" stroke-linejoin="round" fill-opacity="0"></path></g></g><g style="display: block;" transform="matrix(0.9995853900909424,0.028793951496481895,-0.028793951496481895,0.9995853900909424,307.7763977050781,345.8568420410156)" opacity="0.33"><g opacity="1" transform="matrix(1,0,0,1,0,0)"><path fill="rgb(186,186,186)" fill-opacity="1" d=" M9.777000427246094,86.5530014038086 C9.777000427246094,86.5530014038086 47.145999908447266,-88.81600189208984 47.145999908447266,-88.81600189208984 C47.145999908447266,-88.81600189208984 -13.121000289916992,-107.5 -13.121000289916992,-107.5 C-13.121000289916992,-107.5 -51.994998931884766,76.50499725341797 -51.994998931884766,76.50499725341797 C-51.994998931884766,76.50499725341797 9.777000427246094,86.5530014038086 9.777000427246094,86.5530014038086z"></path></g></g><g style="display: none;"><g><path></path></g></g><g style="display: block;" transform="matrix(1,0,0,1,216.20401000976562,329.5050048828125)" opacity="1"><g opacity="1" transform="matrix(1,0,0,1,0,0)"><path fill="rgb(255,213,39)" fill-opacity="1" d=" M-28.680999755859375,-19.524999618530273 C-5.297999858856201,-41.680999755859375 -1.625,-55.74100112915039 4.4079999923706055,-59.757999420166016 C13.628999710083008,-66.68499755859375 15.692000389099121,-70.35199737548828 20.445999145507812,-63.32500076293945 C23.42799949645996,-58.917999267578125 24.66699981689453,-50.00199890136719 23.788999557495117,-39.58000183105469 C21.79599952697754,-15.920000076293945 -6.531000137329102,49.268001556396484 -32.33399963378906,35.374000549316406"></path><path stroke-linecap="round" stroke-linejoin="round" fill-opacity="0" stroke="rgb(250,144,22)" stroke-opacity="1" stroke-width="10" d=" M-28.680999755859375,-19.524999618530273 C-5.297999858856201,-41.680999755859375 -1.625,-55.74100112915039 4.4079999923706055,-59.757999420166016 C13.628999710083008,-66.68499755859375 15.692000389099121,-70.35199737548828 20.445999145507812,-63.32500076293945 C23.42799949645996,-58.917999267578125 24.66699981689453,-50.00199890136719 23.788999557495117,-39.58000183105469 C21.79599952697754,-15.920000076293945 -6.531000137329102,49.268001556396484 -32.33399963378906,35.374000549316406"></path></g></g><g style="display: block;" transform="matrix(1,0,0,1,200.87399291992188,346.322998046875)" opacity="1"><g opacity="1" transform="matrix(1,0,0,1,0,0)"><path stroke-linecap="round" stroke-linejoin="round" fill-opacity="0" stroke="rgb(252,238,33)" stroke-opacity="1" stroke-width="8" d=" M-5.236000061035156,4.517000198364258 C2.76200008392334,1.1069999933242798 12.979999542236328,-13.767000198364258 18.22599983215332,-24.86400032043457"></path></g></g><g style="display: block;" transform="matrix(0.874357283115387,0.4852827787399292,-0.4852827787399292,0.874357283115387,403.75897216796875,376.1654052734375)" opacity="1"><g opacity="1" transform="matrix(1,0,0,1,0,0)"><path fill="rgb(255,213,39)" fill-opacity="1" d=" M6.322000026702881,-22.788999557495117 C1.4359999895095825,-11.503000259399414 -4.511000156402588,-3.6510000228881836 -12.277999877929688,-1.2769999504089355 C-29.32200050354004,3.933000087738037 16.02199935913086,32.555999755859375 32.305999755859375,14.930999755859375"></path><path stroke-linecap="round" stroke-linejoin="round" fill-opacity="0" stroke="rgb(250,144,22)" stroke-opacity="1" stroke-width="10" d=" M6.322000026702881,-22.788999557495117 C1.4359999895095825,-11.503000259399414 -4.511000156402588,-3.6510000228881836 -12.277999877929688,-1.2769999504089355 C-29.32200050354004,3.933000087738037 16.02199935913086,32.555999755859375 32.305999755859375,14.930999755859375"></path></g></g><g style="display: none;"><g><path></path><path stroke-linecap="round" stroke-linejoin="round" fill-opacity="0"></path></g></g><g style="display: block;" transform="matrix(1,0,0,1,256,256)" opacity="1"></g></g><g clip-path="url(#__lottie_element_4)" style="display: none;"><g style="display: none;"><g><path></path><path stroke-linecap="round" stroke-linejoin="round" fill-opacity="0"></path></g></g><g style="display: none;"><g><path></path><path stroke-linecap="round" stroke-linejoin="round" fill-opacity="0"></path></g></g><g style="display: none;"><g><path></path></g><g><path></path></g><g><path></path></g><g><path></path></g></g><g style="display: none;"><g><path></path></g></g><g style="display: none;"><g><path></path><path stroke-linecap="round" stroke-linejoin="round" fill-opacity="0"></path></g></g><g style="display: none;"><g><path stroke-linecap="round" stroke-linejoin="round" fill-opacity="0"></path></g></g><g style="display: none;"><g><path stroke-linecap="round" stroke-linejoin="round" fill-opacity="0"></path></g></g><g style="display: none;"><g><path></path><path stroke-linecap="round" stroke-linejoin="round" fill-opacity="0"></path></g></g><g style="display: none;"><g><path stroke-linecap="round" stroke-linejoin="round" fill-opacity="0"></path></g></g><g style="display: none;"><g><path></path><path stroke-linecap="round" stroke-linejoin="round" fill-opacity="0"></path></g></g><g style="display: none;"><g><path></path></g></g><g style="display: none;"><g><path stroke-linecap="round" stroke-linejoin="round" fill-opacity="0"></path></g></g><g style="display: none;"><g><path></path><path stroke-linecap="butt" stroke-linejoin="round" fill-opacity="0"></path></g></g><g style="display: none;"><g><path stroke-linecap="round" stroke-linejoin="round" fill-opacity="0"></path></g></g><g style="display: none;"><g><path></path><path stroke-linecap="round" stroke-linejoin="round" fill-opacity="0"></path></g></g><g style="display: none;"><g><path></path></g></g><g style="display: none;"><g><path stroke-linecap="round" stroke-linejoin="round" fill-opacity="0"></path></g></g><g style="display: none;"><g><path stroke-linecap="round" stroke-linejoin="round" fill-opacity="0"></path></g></g><g style="display: none;"><g><path></path><path stroke-linecap="round" stroke-linejoin="round" fill-opacity="0"></path></g></g><g style="display: none;"><g><path></path></g><g><path></path></g><g><path></path></g><g><path></path></g></g><g style="display: none;"><g><path></path><path stroke-linecap="round" stroke-linejoin="round" fill-opacity="0"></path></g></g><g style="display: none;"><g><path></path></g></g><g style="display: none;"><g><path></path></g></g><g style="display: none;"><g><path></path><path stroke-linecap="round" stroke-linejoin="round" fill-opacity="0"></path></g></g><g style="display: none;"><g><path stroke-linecap="round" stroke-linejoin="round" fill-opacity="0"></path></g></g><g style="display: none;"><g><path></path><path stroke-linecap="round" stroke-linejoin="round" fill-opacity="0"></path></g></g><g style="display: none;"><g><path></path><path stroke-linecap="round" stroke-linejoin="round" fill-opacity="0"></path></g></g><g style="display: none;"></g></g></g></svg>